<?xml version="1.0" standalone="no"?><!DOCTYPE svg PUBLIC "-//W3C//DTD SVG 1.1//EN" "http://www.w3.org/Graphics/SVG/1.1/DTD/svg11.dtd"><svg t="1730338326902" class="icon" viewBox="0 0 1024 1024" version="1.1" xmlns="http://www.w3.org/2000/svg" p-id="49129" xmlns:xlink="http://www.w3.org/1999/xlink" width="200" height="200"><path d="M768 51.2h-512c-112.64 0-204.8 92.16-204.8 204.8v512c0 112.64 92.16 204.8 204.8 204.8h512c112.64 0 204.8-92.16 204.8-204.8v-512c0-112.64-92.16-204.8-204.8-204.8z" fill="#8D8DD8" p-id="49130"></path><path d="M952.32 170.666667c-30.72-71.68-102.4-119.466667-184.32-119.466667h-139.946667c116.053333 20.48 225.28 61.44 324.266667 119.466667z" fill="#8585CC" p-id="49131"></path><path d="M51.2 256v512c0 112.64 92.16 204.8 204.8 204.8h512c112.64 0 204.8-92.16 204.8-204.8V303.786667C822.613333 197.973333 641.706667 136.533333 443.733333 136.533333 300.373333 136.533333 163.84 170.666667 44.373333 228.693333c3.413333 6.826667 6.826667 17.066667 6.826667 27.306667z" fill="#BD82F4" p-id="49132"></path><path d="M51.2 768c0 112.64 92.16 204.8 204.8 204.8h512c112.64 0 204.8-92.16 204.8-204.8v-334.506667C829.44 310.613333 645.12 238.933333 443.733333 238.933333 300.373333 238.933333 167.253333 276.48 51.2 337.92v430.08z" fill="#ED73F4" p-id="49133"></path><path d="M51.2 768c0 112.64 92.16 204.8 204.8 204.8h512c112.64 0 204.8-92.16 204.8-204.8v-191.146667C843.093333 433.493333 651.946667 341.333333 443.733333 341.333333c-143.36 0-279.893333 44.373333-392.533333 116.053334v310.613333z" fill="#F97DCD" p-id="49134"></path><path d="M51.2 768c0 112.64 92.16 204.8 204.8 204.8h512c112.64 0 204.8-92.16 204.8-204.8v-20.48C866.986667 566.613333 669.013333 443.733333 443.733333 443.733333c-150.186667 0-286.72 54.613333-392.533333 143.36v180.906667z" fill="#FC9C95" p-id="49135"></path><path d="M51.2 768c0 112.64 92.16 204.8 204.8 204.8h512c64.853333 0 122.88-30.72 160.426667-78.506667C860.16 692.906667 669.013333 546.133333 443.733333 546.133333c-157.013333 0-296.96 71.68-392.533333 184.32v37.546667z" fill="#FFAC99" p-id="49136"></path><path d="M256 972.8h512c27.306667 0 51.2-3.413333 71.68-13.653333-44.373333-177.493333-204.8-310.613333-395.946667-310.613334-160.426667 0-296.96 92.16-365.226666 221.866667 37.546667 61.44 102.4 102.4 177.493333 102.4z" fill="#FFC49C" p-id="49137"></path><path d="M256 972.8h481.28c-34.133333-129.706667-153.6-221.866667-293.546667-221.866667-129.706667 0-242.346667 81.92-286.72 197.973334 30.72 13.653333 64.853333 23.893333 98.986667 23.893333z" fill="#FFDE8D" p-id="49138"></path><path d="M628.053333 972.8c-30.72-71.68-102.4-119.466667-184.32-119.466667s-153.6 47.786667-184.32 119.466667h368.64z" fill="#FFF69F" p-id="49139"></path><path d="M785.066667 68.266667c95.573333 0 170.666667 75.093333 170.666666 170.666666v546.133334c0 95.573333-75.093333 170.666667-170.666666 170.666666H238.933333c-95.573333 0-170.666667-75.093333-170.666666-170.666666V238.933333c0-95.573333 75.093333-170.666667 170.666666-170.666666h546.133334m0-34.133334H238.933333C126.293333 34.133333 34.133333 126.293333 34.133333 238.933333v546.133334c0 112.64 92.16 204.8 204.8 204.8h546.133334c112.64 0 204.8-92.16 204.8-204.8V238.933333c0-112.64-92.16-204.8-204.8-204.8z" fill="#8B75A1" p-id="49140"></path><path d="M648.533333 853.333333h-273.066666c-112.64 0-204.8-92.16-204.8-204.8v-273.066666c0-112.64 92.16-204.8 204.8-204.8h273.066666c112.64 0 204.8 92.16 204.8 204.8v273.066666c0 112.64-92.16 204.8-204.8 204.8zM375.466667 238.933333c-75.093333 0-136.533333 61.44-136.533334 136.533334v273.066666c0 75.093333 61.44 136.533333 136.533334 136.533334h273.066666c75.093333 0 136.533333-61.44 136.533334-136.533334v-273.066666c0-75.093333-61.44-136.533333-136.533334-136.533334h-273.066666z" fill="#FFFFFF" p-id="49141"></path><path d="M512 682.666667c-95.573333 0-170.666667-75.093333-170.666667-170.666667s75.093333-170.666667 170.666667-170.666667 170.666667 75.093333 170.666667 170.666667-75.093333 170.666667-170.666667 170.666667z m0-273.066667c-58.026667 0-102.4 44.373333-102.4 102.4s44.373333 102.4 102.4 102.4 102.4-44.373333 102.4-102.4-44.373333-102.4-102.4-102.4z m170.666667-102.4a34.133333 34.133333 0 1 0 0 68.266667 34.133333 34.133333 0 1 0 0-68.266667z" fill="#FFFFFF" p-id="49142"></path></svg>