<?xml version="1.0" encoding="UTF-8"?>
<svg version="1.1" xmlns="http://www.w3.org/2000/svg" width="512" height="512">
<path d="M0 0 C2.35769399 0.75009604 4.71699248 1.49517393 7.078125 2.234375 C8.08133789 2.55116211 9.08455078 2.86794922 10.11816406 3.19433594 C21.13332155 6.2738022 30.32907025 4.18778565 41 1 C42.18303711 0.6498584 43.36607422 0.2997168 44.58496094 -0.06103516 C52.41572935 -2.38131719 60.23477102 -4.73815577 68.04589844 -7.1237793 C82.12038156 -11.29843384 97.97325502 -10.2951699 110.98828125 -3.421875 C126.35404311 5.8100577 133.08745564 19.94448918 140.9375 35.5 C141.51773926 36.64637939 142.09797852 37.79275879 142.69580078 38.97387695 C143.23833496 40.06531006 143.78086914 41.15674316 144.33984375 42.28125 C144.82831787 43.26158203 145.31679199 44.24191406 145.82006836 45.25195312 C146.9558434 47.89715979 147.70560365 50.1382361 148 53 C147.484375 53.804375 146.96875 54.60875 146.4375 55.4375 C144.65320013 57.95757169 144.65320013 57.95757169 145.625 60.9375 C146.305625 62.4534375 146.305625 62.4534375 147 64 C147.350625 65.0725 147.70125 66.145 148.0625 67.25 C149.64032338 70.1664718 149.64032338 70.1664718 151.95581055 70.37207031 C152.71676025 70.44006836 153.47770996 70.50806641 154.26171875 70.578125 C157.19224327 71.16686343 158.61122837 71.57655461 160.65063477 73.79785156 C162.17682668 76.3074352 163.48063929 78.85104884 164.75 81.5 C165.24459717 82.46671631 165.73919434 83.43343262 166.2487793 84.42944336 C167.8639173 87.60486181 169.43238303 90.80088791 171 94 C172.13425909 96.26295328 173.27100646 98.52466095 174.41015625 100.78515625 C175.25489502 102.46919556 175.25489502 102.46919556 176.11669922 104.18725586 C177.24279537 106.42858602 178.37329862 108.66770764 179.50830078 110.90454102 C184.00499329 119.81904851 184.00499329 119.81904851 185.70703125 124.4296875 C187.16150923 128.0278176 188.15640499 130.35301106 191 133 C195.59381469 134.65077607 200.42896908 134.9761213 205.2578125 135.4296875 C215.50353598 136.44817328 222.98648854 141.99177587 229.87109375 149.3515625 C236.3524742 157.41463763 239.58965969 166.91204899 239.3046875 177.234375 C238.04683308 188.65182282 233.27311046 198.49565307 224.609375 206.09765625 C218.07088701 210.9398384 210.91606315 214.15653324 203 216 C203.32613281 216.46148437 203.65226562 216.92296875 203.98828125 217.3984375 C211.27774697 228.27887896 212.60111461 240.09977464 210.53125 252.8984375 C207.57086108 264.07038141 200.61608338 273.95373429 190.76171875 279.98046875 C185.21429241 283.0021438 180.50435296 285.16165771 174.0625 285.3125 C171.32729324 285.52284221 171.32729324 285.52284221 169 287 C166.72812685 291.15724506 165.28669129 295.35823022 163.8046875 299.84375 C159.57170476 312.54752487 152.35501737 324.60154642 144 335 C143.31550781 335.88558594 142.63101562 336.77117187 141.92578125 337.68359375 C127.19034931 356.33436488 108.73641403 371.19730348 87 381 C86.34 381 85.68 381 85 381 C87.34365626 383.57267805 89.82246254 385.17575379 92.8125 386.9375 C119.86517709 403.94816618 138.01714459 430.66922506 147 461 C147.24621094 461.74507813 147.49242187 462.49015625 147.74609375 463.2578125 C150.28273473 471.6199807 150.36520431 481.206071 146.25 489.0078125 C141.85169284 496.01761453 137.0544673 500.51162688 129 503 C122.18782591 503.94931531 115.23944607 503.68428768 108.37890625 503.64697266 C106.28530112 503.65375493 104.19170196 503.66266148 102.09811401 503.67352295 C96.43277638 503.69625006 90.76789578 503.68750697 85.10255051 503.67162752 C79.16283725 503.65893447 73.22316212 503.67071809 67.28344727 503.67855835 C57.31031294 503.68764497 47.33736397 503.6756928 37.36425781 503.65185547 C25.84771017 503.62464627 14.33160517 503.63346111 2.81506824 503.6609875 C-7.0875816 503.68370559 -16.9900985 503.68686539 -26.892766 503.67379415 C-32.80072595 503.66601455 -38.7084781 503.66491715 -44.61642456 503.68147659 C-50.17180898 503.69596125 -55.72662484 503.68582617 -61.28194809 503.65700531 C-63.31601901 503.6504159 -65.3501381 503.65225526 -67.38418961 503.66331863 C-88.72956278 503.76867973 -88.72956278 503.76867973 -97.11256409 496.05648232 C-102.9043284 490.12492878 -105.09849694 484.33007536 -105.5 476.125 C-104.73874347 447.49513486 -86.44982289 419.61451465 -66.39282227 400.47021484 C-59.80008532 394.35573499 -52.79301441 389.062319 -44.9375 384.6875 C-41.92935366 383.3193696 -41.92935366 383.3193696 -41 381 C-42.00675781 380.75378906 -43.01351562 380.50757813 -44.05078125 380.25390625 C-48.11843969 379.08602542 -51.60452605 377.15512542 -55.1875 374.9375 C-56.15272583 374.34956665 -56.15272583 374.34956665 -57.13745117 373.74975586 C-64.07381683 369.45312684 -71.21721597 364.78278403 -77 359 C-76.984375 356.79296875 -76.984375 356.79296875 -76.75 354.1875 C-76.59765365 350.49893576 -76.59765365 350.49893576 -78.22265625 347.3359375 C-80.02133918 345.85135048 -80.02133918 345.85135048 -83 344 C-83.495 343.38125 -83.99 342.7625 -84.5 342.125 C-84.995 341.75375 -85.49 341.3825 -86 341 C-86.94875 341.165 -87.8975 341.33 -88.875 341.5 C-92.85915671 342.13746507 -93.77866973 341.33167608 -97 339 C-107.8899288 326.85880469 -124 302.85457656 -124 286 C-125.423125 286.0928125 -125.423125 286.0928125 -126.875 286.1875 C-137.62557288 286.12260721 -147.3762521 280.52861806 -155.1875 273.5 C-164.56668175 263.66329719 -167.49241372 251.59702304 -167.28515625 238.41796875 C-166.92927409 230.09676438 -164.09983448 222.55693005 -159 216 C-159.73863281 215.79246094 -160.47726563 215.58492187 -161.23828125 215.37109375 C-173.55993411 211.62919409 -183.01705701 206.06730587 -190 195 C-195.20287538 184.59424924 -196.52202645 174.63116929 -193.375 163.375 C-191.4587224 157.64633855 -189.05573604 153.43872323 -185 149 C-184.49855469 148.39671875 -183.99710938 147.7934375 -183.48046875 147.171875 C-178.48759742 141.58374651 -171.47257515 136.55123182 -163.83584595 135.78201294 C-163.07839081 135.75324066 -162.32093567 135.72446838 -161.54052734 135.69482422 C-152.80447963 135.42837929 -152.80447963 135.42837929 -145.29516602 131.48461914 C-141.52422057 126.64302998 -139.26567211 120.98113719 -136.875 115.375 C-136.05125332 113.59515612 -135.21990904 111.81881063 -134.38134766 110.04589844 C-132.68379343 106.44020081 -131.02062135 102.821683 -129.3828125 99.18847656 C-126.30361332 92.41030828 -122.88059101 85.8246248 -119.41702271 79.23703003 C-117.67542368 75.91597998 -115.96189556 72.58052301 -114.24609375 69.24609375 C-113.90448715 68.5835408 -113.56288055 67.92098785 -113.21092224 67.23835754 C-110.94489995 62.84236212 -108.68898537 58.4412737 -106.43798828 54.03756714 C-104.82871189 50.88952931 -103.21712498 47.74267643 -101.60552979 44.5958252 C-100.84322512 43.1056325 -100.08206365 41.61485429 -99.32220459 40.12341309 C-79.01132396 0.2607234 -79.01132396 0.2607234 -58.0625 -7.4375 C-37.68918615 -12.81015919 -19.32403378 -6.2210796 0 0 Z " fill="#020101" transform="translate(234,9)"/>
<path d="M0 0 C89.1 0 178.2 0 270 0 C271.36683372 6.15075173 272.25804126 10.4085417 272.30078125 16.4296875 C272.30647125 17.09806137 272.31216125 17.76643524 272.31802368 18.45506287 C272.33003307 20.59529407 272.3239813 22.7347724 272.3125 24.875 C272.31001251 25.6098764 272.30752502 26.34475281 272.30496216 27.10189819 C272.13513398 59.51702395 262.55391997 90.15819393 241 115 C240.55124512 115.51884766 240.10249023 116.03769531 239.64013672 116.57226562 C218.24141114 141.12646002 187.03934967 160.66777621 153.984375 163.80517578 C147.28567096 164.24247665 140.58556888 164.32995713 133.875 164.375 C133.1601947 164.38312714 132.4453894 164.39125427 131.70892334 164.39962769 C118.08085531 164.51555717 104.93472556 162.81132973 92 158.3125 C90.8867334 157.93121948 90.8867334 157.93121948 89.75097656 157.54223633 C75.12871256 152.35173654 61.16959092 144.58757738 49.0625 134.875 C46.06403796 132.64335936 46.06403796 132.64335936 42.25 133.1875 C40.64125 133.5896875 40.64125 133.5896875 39 134 C35.36694754 134 34.10272479 132.77258377 31.4296875 130.4453125 C29.51923255 128.51397826 28.23770566 126.40664989 27 124 C27.66 123.01 28.32 122.02 29 121 C28.80538297 115.46638919 27.3523202 112.5383281 23.875 108.3125 C5.78423358 85.33553928 -2.43260952 56.30206202 -2.26074219 27.33911133 C-2.24992141 25.17175913 -2.26076449 23.00521959 -2.2734375 20.83789062 C-2.27211707 19.42708155 -2.26955709 18.01627297 -2.265625 16.60546875 C-2.26336914 15.35918701 -2.26111328 14.11290527 -2.25878906 12.82885742 C-2 9 -2 9 0 0 Z " fill="#FED2BB" transform="translate(121,224)"/>
<path d="M0 0 C4.50304093 1.51405539 9.06946862 2.81124973 13.63647461 4.11669922 C16.47945635 4.93319687 19.28882819 5.76542193 22.06494141 6.7890625 C41.7686053 13.98459846 62.44374895 4.95510823 81.26464844 -1.10449219 C94.9397897 -5.50326166 106.86503339 -7.59261299 120.41650391 -1.1875 C132.00296532 5.62700227 137.48875519 17.40824734 143.10400391 29.125 C144.2063705 31.41551549 145.31425347 33.70338607 146.42822266 35.98828125 C146.90735107 36.98770752 147.38647949 37.98713379 147.88012695 39.0168457 C149.49520739 41.95571207 151.09316471 44.38926191 153.41650391 46.8125 C154.69525391 46.85375 155.97400391 46.895 157.29150391 46.9375 C159.36962891 47.05078125 159.36962891 47.05078125 161.41650391 47.8125 C164.14776232 51.15995696 166.16324906 54.67207395 167.41650391 58.8125 C166.68008423 60.95249182 166.00419046 62.22481345 164.41650391 63.8125 C164.01380559 69.11116206 164.78411402 72.37355522 167.27587891 77.03125 C167.57668869 77.60341248 167.87749847 78.17557495 168.18742371 78.76507568 C169.16728995 80.62155234 170.16666856 82.46671438 171.16650391 84.3125 C171.84835317 85.59657276 172.52875955 86.88141268 173.20776367 88.16699219 C174.59012908 90.7798632 175.97977098 93.38863964 177.37597656 95.99414062 C180.41036701 101.66177757 183.38008472 107.36294463 186.35400391 113.0625 C186.86737305 114.03767578 187.38074219 115.01285156 187.90966797 116.01757812 C188.37469727 116.90380859 188.83972656 117.79003906 189.31884766 118.703125 C189.72611084 119.47688477 190.13337402 120.25064453 190.55297852 121.04785156 C191.41650391 122.8125 191.41650391 122.8125 191.41650391 123.8125 C91.09650391 123.8125 -9.22349609 123.8125 -112.58349609 123.8125 C-109.94349609 118.5325 -107.30349609 113.2525 -104.58349609 107.8125 C-103.35888672 105.35167969 -102.13427734 102.89085938 -100.87255859 100.35546875 C-99.03662109 96.66992187 -99.03662109 96.66992187 -98.12060547 94.83178711 C-97.51538695 93.61632819 -96.91088766 92.40051086 -96.30712891 91.18432617 C-92.57787699 83.67441913 -88.76138131 76.21875615 -84.83740234 68.80859375 C-81.08512223 61.72175697 -77.42782865 54.59199126 -73.82177734 47.4296875 C-72.83813047 45.48173191 -71.85440618 43.5338154 -70.87060547 41.5859375 C-69.37188739 38.61760266 -67.87619854 35.6479113 -66.38891602 32.67382812 C-64.91716304 29.73366979 -63.43306208 26.80002101 -61.94677734 23.8671875 C-61.29338127 22.5497908 -61.29338127 22.5497908 -60.62678528 21.20578003 C-54.79153307 9.75925124 -47.26133564 0.23445293 -34.77099609 -4.125 C-22.15008272 -7.21184878 -11.87876434 -4.09628912 0 0 Z " fill="#DE8956" transform="translate(216.58349609375,20.1875)"/>
<path d="M0 0 C1.48455878 -0.00345855 2.96911499 -0.00822443 4.45366585 -0.01418173 C8.52511159 -0.02669467 12.59634611 -0.02052001 16.66779256 -0.01122308 C21.06189857 -0.00443401 25.45596833 -0.01491319 29.85006714 -0.02316284 C38.45551115 -0.03650454 47.06087667 -0.03362029 55.66632377 -0.02492492 C62.66122399 -0.01814963 69.65610222 -0.01723099 76.65100479 -0.02049637 C78.14437946 -0.02118592 78.14437946 -0.02118592 79.66792331 -0.0218894 C81.690461 -0.02284858 83.71299868 -0.02382122 85.73553635 -0.02480717 C104.70284542 -0.03336257 123.67011099 -0.02352503 142.63741292 -0.00740607 C158.90788407 0.00599312 175.178291 0.0036726 191.44876099 -0.01016235 C210.34512487 -0.02622262 229.24145061 -0.03253424 248.13782036 -0.02332556 C250.15352702 -0.02236992 252.16923367 -0.02142681 254.18494034 -0.02049637 C255.17668871 -0.02003354 256.16843708 -0.01957072 257.19023844 -0.01909386 C264.17471576 -0.01650501 271.15916886 -0.02087281 278.14364243 -0.02793503 C286.65845681 -0.03635536 295.17318825 -0.03405883 303.68799315 -0.0180928 C308.0313747 -0.01021664 312.37461803 -0.00710726 316.7179985 -0.01704025 C320.69669605 -0.02600149 324.67512768 -0.02103087 328.65380122 -0.0051076 C330.09048288 -0.00176578 331.52718715 -0.00344036 332.96385418 -0.01073496 C345.43232212 -0.06916964 353.33011965 1.25963429 362.44241333 10.06063843 C367.35005736 15.45904686 368.05924117 20.6202718 367.83694458 27.66610718 C367.1162506 34.52750882 364.83285762 38.8543201 359.55178833 43.38095093 C358.76803833 44.08220093 357.98428833 44.78345093 357.17678833 45.50595093 C349.4202862 51.04630959 342.35360963 50.81090298 333.07234192 50.76863098 C331.58437044 50.77280603 330.09640215 50.77828449 328.60843974 50.78495079 C324.52752956 50.79940199 320.44682139 50.7951617 316.36590016 50.78778398 C311.96154519 50.78305374 307.55723401 50.79556097 303.15289307 50.80580139 C294.52706569 50.8229982 285.90131113 50.82382748 277.27547105 50.81858849 C270.26341598 50.81454679 263.25138243 50.81599035 256.23932838 50.82133675 C254.74222376 50.82245938 254.74222376 50.82245938 253.2148746 50.82360469 C251.18726564 50.82513618 249.15965669 50.82667452 247.13204775 50.82821966 C228.11654504 50.84194818 209.10108347 50.83650479 190.0855817 50.82503445 C172.694552 50.81510419 155.30362872 50.82803853 137.91261544 50.85196864 C120.05135846 50.87636041 102.19015105 50.88596716 84.32887775 50.87931591 C74.30284043 50.87582355 64.27688494 50.87805679 54.25086021 50.89556694 C45.71483112 50.91028997 37.17894146 50.91092313 28.64291509 50.89349603 C24.28924239 50.88498404 19.93581875 50.88284123 15.58215904 50.89814758 C11.59285706 50.91199905 7.60401741 50.90722586 3.61474214 50.88790835 C2.1753496 50.88414937 0.73591998 50.8870674 -0.70343951 50.89752 C-10.45654733 50.96328305 -17.92620556 49.81686584 -26.26071167 44.63095093 C-31.85154161 38.88038299 -34.54384343 33.12083359 -34.76071167 25.13095093 C-34.65267147 18.3514282 -33.05422417 14.16807627 -28.42477417 9.21688843 C-19.32168334 0.67303184 -12.16465052 -0.06155697 0 0 Z " fill="#E3986C" transform="translate(89.44821166992188,158.61904907226563)"/>
<path d="M0 0 C89.1 0 178.2 0 270 0 C270 0.33 270 0.66 270 1 C194.76 1 119.52 1 42 1 C41.3490988 11.41441921 40.86495785 21.59857108 40.9375 32 C40.94201172 33.26328125 40.94652344 34.5265625 40.95117188 35.828125 C40.96275273 38.88547061 40.97905522 41.94270675 41 45 C41.90717773 44.67475342 42.81435547 44.34950684 43.74902344 44.0144043 C46.42574702 43.17918452 48.27008635 42.75151498 51.015625 42.76953125 C52.05589844 42.77243164 52.05589844 42.77243164 53.1171875 42.77539062 C54.17292969 42.79375977 54.17292969 42.79375977 55.25 42.8125 C55.96929687 42.81314453 56.68859375 42.81378906 57.4296875 42.81445312 C62.71803571 42.85901786 62.71803571 42.85901786 65 44 C64.94199219 42.97519531 64.88398438 41.95039063 64.82421875 40.89453125 C64.77730043 39.53389989 64.73180248 38.17321904 64.6875 36.8125 C64.64560547 36.13896484 64.60371094 35.46542969 64.56054688 34.77148438 C64.46465485 30.83991151 64.87198872 29.16661093 67.29296875 26.015625 C70 24 70 24 73.625 23.9375 C77.44132048 25.13893422 78.16487855 25.54403774 80 29 C80.24207646 31.87609889 80.32876732 34.5098389 80.25 37.375 C80.24484375 38.1175 80.2396875 38.86 80.234375 39.625 C80.18681566 42.98982306 79.98908869 46.05862287 79.37109375 49.37890625 C78.67188751 52.1577475 78.67188751 52.1577475 80.8125 54.5625 C81.8953125 55.7690625 81.8953125 55.7690625 83 57 C85.46620013 61.43916023 85.78871383 66.04355627 85 71 C82.0371163 78.45544223 75.44717997 84.77195149 68.125 87.9375 C63.49020565 89.45165592 58.82029703 89.26669676 54 89 C64.60332201 109.13560139 77.78076879 127.10479966 96 141 C96.96679688 141.77859375 97.93359375 142.5571875 98.9296875 143.359375 C109.8497249 151.87604897 122.45806388 157.29482246 135 163 C135 163.33 135 163.66 135 164 C103.42385442 164.98675455 73.78665279 154.7092648 49.0625 134.875 C46.06403796 132.64335936 46.06403796 132.64335936 42.25 133.1875 C40.64125 133.5896875 40.64125 133.5896875 39 134 C35.36694754 134 34.10272479 132.77258377 31.4296875 130.4453125 C29.51923255 128.51397826 28.23770566 126.40664989 27 124 C27.66 123.01 28.32 122.02 29 121 C28.80538297 115.46638919 27.3523202 112.5383281 23.875 108.3125 C5.78423358 85.33553928 -2.43260952 56.30206202 -2.26074219 27.33911133 C-2.24992141 25.17175913 -2.26076449 23.00521959 -2.2734375 20.83789062 C-2.27211707 19.42708155 -2.26955709 18.01627297 -2.265625 16.60546875 C-2.26336914 15.35918701 -2.26111328 14.11290527 -2.25878906 12.82885742 C-2 9 -2 9 0 0 Z " fill="#F8B998" transform="translate(121,224)"/>
<path d="M0 0 C4.65201559 1.5528376 9.38057662 2.85260206 14.10449219 4.16723633 C17.30436383 5.08209948 19.64979822 5.95191626 22.44726562 7.81689453 C21.55974609 8.50525391 21.55974609 8.50525391 20.65429688 9.20751953 C19.46900391 10.12791016 19.46900391 10.12791016 18.25976562 11.06689453 C17.48246094 11.67017578 16.70515625 12.27345703 15.90429688 12.89501953 C15.09347656 13.52923828 14.28265625 14.16345703 13.44726562 14.81689453 C12.62871094 15.42791016 11.81015625 16.03892578 10.96679688 16.66845703 C8.04161679 19.16279664 5.67454308 21.92252118 3.32226562 24.94189453 C2.84998535 25.54735107 2.37770508 26.15280762 1.89111328 26.77661133 C-3.9096137 34.38514514 -8.79758925 42.52712781 -13.55273438 50.81689453 C-13.94170898 51.49026855 -14.33068359 52.16364258 -14.73144531 52.85742188 C-25.46914654 71.65538366 -33.13985433 92.14186326 -40.65234375 112.39355469 C-41.94439219 115.87101478 -43.25016021 119.34336342 -44.55273438 122.81689453 C33.32726562 122.81689453 111.20726562 122.81689453 191.44726562 122.81689453 C191.44726562 123.14689453 191.44726562 123.47689453 191.44726562 123.81689453 C91.12726563 123.81689453 -9.19273438 123.81689453 -112.55273438 123.81689453 C-109.91273437 118.53689453 -107.27273437 113.25689453 -104.55273438 107.81689453 C-103.328125 105.35607422 -102.10351562 102.89525391 -100.84179688 100.35986328 C-99.00585937 96.67431641 -99.00585937 96.67431641 -98.08984375 94.83618164 C-97.48462523 93.62072272 -96.88012594 92.40490539 -96.27636719 91.1887207 C-92.54711527 83.67881366 -88.73061959 76.22315068 -84.80664062 68.81298828 C-81.05436051 61.7261515 -77.39706693 54.59638579 -73.79101562 47.43408203 C-72.80736875 45.48612644 -71.82364446 43.53820993 -70.83984375 41.59033203 C-69.34112567 38.62199719 -67.84543682 35.65230583 -66.3581543 32.67822266 C-64.88640132 29.73806432 -63.40230036 26.80441555 -61.91601562 23.87158203 C-61.26261955 22.55418533 -61.26261955 22.55418533 -60.59602356 21.21017456 C-54.76077135 9.76364578 -47.23057392 0.23884746 -34.74023438 -4.12060547 C-22.12691173 -7.20559769 -11.86976852 -4.09654081 0 0 Z " fill="#D67A40" transform="translate(216.552734375,20.18310546875)"/>
<path d="M0 0 C0.01458252 1.09876465 0.02916504 2.1975293 0.04418945 3.32958984 C0.10264043 7.44871805 0.17986581 11.56732604 0.26245117 15.68603516 C0.29548221 17.46068815 0.32358035 19.23544069 0.34643555 21.01025391 C0.54007857 37.96076484 0.54007857 37.96076484 7 53.4375 C7.495 54.24058594 7.99 55.04367187 8.5 55.87109375 C9.91783149 58.01812219 9.91783149 58.01812219 11.6875 59.66015625 C13 61 13 61 13 63 C13.57492188 63.27070313 14.14984375 63.54140625 14.7421875 63.8203125 C17.02804236 65.01465189 19.02565294 66.37989305 21.125 67.875 C34.44380463 76.86409421 49.84728194 77.62956901 65.4375 75.5390625 C77.36031214 72.5930188 88.67589503 65.66344284 95.25 55.1875 C100.4521046 45.88891522 103.07582408 37.50479992 103.31640625 26.85546875 C103.3475779 25.7007885 103.3475779 25.7007885 103.37937927 24.52278137 C103.44446049 22.07777333 103.50356591 19.63266317 103.5625 17.1875 C103.60572468 15.52407823 103.64934021 13.86066656 103.69335938 12.19726562 C103.80009907 8.13161352 103.90148171 4.06585929 104 0 C111.46304018 2.20780673 119.12163846 5.69956403 124 12 C126.36395608 17.88315521 125.63580212 24.49100244 125.3671875 30.6953125 C125.34656416 32.2934688 125.33230584 33.89172012 125.32446289 35.48999023 C125.25151121 41.36978321 125.05604557 47.24754223 124.875 53.125 C124.58625 66.28375 124.2975 79.4425 124 93 C76.48 93 28.96 93 -20 93 C-20.28875 79.84125 -20.5775 66.6825 -20.875 53.125 C-21.00245605 48.98727051 -21.12991211 44.84954102 -21.26123047 40.58642578 C-21.32446289 35.48999023 -21.32446289 35.48999023 -21.33621216 33.09567261 C-21.35755955 31.44140734 -21.40649778 29.7873456 -21.47805786 28.13449097 C-22.0355115 14.56732878 -22.0355115 14.56732878 -18.62351227 10.26387787 C-14.83893446 6.74487908 -10.58876756 4.3254137 -6 2 C-5.23348114 1.5883963 -4.46696228 1.1767926 -3.67721558 0.75271606 C-2 0 -2 0 0 0 Z " fill="#7787AE" transform="translate(204,404)"/>
<path d="M0 0 C0.6935257 -0.00043808 1.38705139 -0.00087616 2.10159302 -0.00132751 C4.36888881 0.00074421 6.63542306 0.02399687 8.90258789 0.04760742 C10.48441667 0.05320917 12.06625068 0.05747653 13.64808655 0.06047058 C17.79263921 0.07187389 21.93687181 0.10130158 26.08129883 0.13458252 C30.31790844 0.16538129 34.55457024 0.17899679 38.79125977 0.1940918 C47.09023406 0.22617614 55.38894918 0.27731711 63.68774414 0.34057617 C63.27116043 0.81928665 62.85457672 1.29799713 62.42536926 1.79121399 C61.88135971 2.42021103 61.33735016 3.04920807 60.77685547 3.69726562 C60.23652176 4.3203511 59.69618805 4.94343658 59.13948059 5.58540344 C57.5813832 7.46916826 56.41135557 9.31435793 55.37524414 11.52807617 C55.06973633 12.16100586 54.76422852 12.79393555 54.44946289 13.44604492 C51.78487588 20.07335107 51.51339639 28.08356557 53.40649414 34.94604492 C55.84713955 40.66384728 59.28626608 45.93909811 63.68774414 50.34057617 C54.733655 50.43362485 45.77973461 50.50451671 36.82526588 50.54782486 C32.66645749 50.56862009 28.50798206 50.59678821 24.34936523 50.64233398 C20.3292963 50.68608233 16.30954583 50.70977379 12.28925705 50.72008514 C10.76237354 50.72742493 9.23550569 50.74175672 7.70875931 50.7634964 C-2.41681823 50.90182487 -10.40348923 50.01714207 -19.12475586 44.59057617 C-24.7155858 38.84000824 -27.40788762 33.08045883 -27.62475586 25.09057617 C-27.51671566 18.31105344 -25.91826836 14.12770151 -21.28881836 9.17651367 C-14.71835312 3.00969476 -9.09281771 -0.04862469 0 0 Z " fill="#DE8956" transform="translate(82.312255859375,158.659423828125)"/>
<path d="M0 0 C0.01458252 1.09876465 0.02916504 2.1975293 0.04418945 3.32958984 C0.10264043 7.44871805 0.17986581 11.56732604 0.26245117 15.68603516 C0.29548221 17.46068815 0.32358035 19.23544069 0.34643555 21.01025391 C0.54007857 37.96076484 0.54007857 37.96076484 7 53.4375 C7.495 54.24058594 7.99 55.04367187 8.5 55.87109375 C9.91783149 58.01812219 9.91783149 58.01812219 11.6875 59.66015625 C13 61 13 61 13 63 C13.57234375 63.27070313 14.1446875 63.54140625 14.734375 63.8203125 C17.04617669 65.02404373 19.10993316 66.38927015 21.25 67.875 C25.35766993 70.65431896 29.51899088 72.88170478 34 75 C33.855625 75.79664063 33.71125 76.59328125 33.5625 77.4140625 C33.376875 78.47367187 33.19125 79.53328125 33 80.625 C32.7215625 82.19121094 32.7215625 82.19121094 32.4375 83.7890625 C31.86499438 87.45074387 31.86499438 87.45074387 32 93 C14.84 93 -2.32 93 -20 93 C-20.56152333 73.18624819 -20.56152333 73.18624819 -20.68359375 64.6953125 C-20.76708379 58.91547205 -20.86547331 53.13875558 -21.05615234 47.36132812 C-21.20905188 42.69904544 -21.29212578 38.04011222 -21.3282814 33.37551498 C-21.35401824 31.60253011 -21.40428876 29.82971543 -21.48022079 28.05817032 C-22.03512488 14.56684115 -22.03512488 14.56684115 -18.62351227 10.26387787 C-14.83893446 6.74487908 -10.58876756 4.3254137 -6 2 C-5.23348114 1.5883963 -4.46696228 1.1767926 -3.67721558 0.75271606 C-2 0 -2 0 0 0 Z " fill="#677CA8" transform="translate(204,404)"/>
<path d="M0 0 C3.81632048 1.20143422 4.53987855 1.60653774 6.375 5.0625 C6.61707646 7.93859889 6.70376732 10.5723389 6.625 13.4375 C6.61984375 14.18 6.6146875 14.9225 6.609375 15.6875 C6.56181566 19.05232306 6.36408869 22.12112287 5.74609375 25.44140625 C5.04688751 28.2202475 5.04688751 28.2202475 7.1875 30.625 C7.909375 31.429375 8.63125 32.23375 9.375 33.0625 C11.84120013 37.50166023 12.16371383 42.10605627 11.375 47.0625 C8.46365742 54.3882504 1.9618748 60.65211654 -5.125 64 C-13.28490366 66.60147424 -24.77447588 66.34916643 -32.671875 63.09375 C-39.85832097 59.29930653 -44.76609709 54.83183338 -47.625 47.0625 C-48.72645856 41.4387068 -47.30590587 36.02911845 -44.625 31.0625 C-42.25 28.3125 -42.25 28.3125 -39.625 26.0625 C-38.861875 25.36125 -38.09875 24.66 -37.3125 23.9375 C-28.96420427 18.11310763 -20.41440574 18.48006396 -10.625 19.0625 C-9.965 19.3925 -9.305 19.7225 -8.625 20.0625 C-8.71201172 18.52529297 -8.71201172 18.52529297 -8.80078125 16.95703125 C-8.84769957 15.59639989 -8.89319752 14.23571904 -8.9375 12.875 C-8.97939453 12.20146484 -9.02128906 11.52792969 -9.06445312 10.83398438 C-9.16034515 6.90241151 -8.75301128 5.22911093 -6.33203125 2.078125 C-3.625 0.0625 -3.625 0.0625 0 0 Z " fill="#FEA1AB" transform="translate(194.625,247.9375)"/>
<path d="M0 0 C3.46245781 3.34082581 3.47178925 6.59064781 3.6875 11.25 C3.78611328 13.14492188 3.78611328 13.14492188 3.88671875 15.078125 C3.92410156 16.04234375 3.96148437 17.0065625 4 18 C5.03898437 17.95359375 6.07796875 17.9071875 7.1484375 17.859375 C17.81991133 17.5223676 25.80047555 18.33980979 34.375 25.3125 C38.98495769 29.69849213 41.71337959 33.42041631 42.4375 39.9375 C42.07003096 46.47591458 39.64045777 52.35954223 35 57 C24.92120901 64.42420578 14.45187614 65.26207925 2.30859375 63.640625 C-4.95457068 61.7176405 -11.24138994 56.17431904 -15.33203125 49.984375 C-17.63485156 44.81091567 -17.37505621 39.41826785 -16 34 C-14 30.6875 -14 30.6875 -12 28 C-10.86368374 24.40564753 -10.86368374 24.40564753 -12 21 C-12.31340722 18.0492115 -12.32395224 15.09041089 -12.375 12.125 C-12.43107422 10.90103516 -12.43107422 10.90103516 -12.48828125 9.65234375 C-12.57647885 3.64510728 -12.57647885 3.64510728 -9.703125 0.4296875 C-6.00280273 -1.52741936 -3.96620342 -1.17517138 0 0 Z " fill="#FEA1AC" transform="translate(323,249)"/>
<path d="M0 0 C0.73605469 0.74121094 1.47210938 1.48242188 2.23046875 2.24609375 C12.71794602 12.6744033 21.60730338 18.87579022 36.75 19.375 C47.36669343 19.19332396 56.86900888 15.91134245 65 9 C67.25626208 6.65548277 69.38834188 4.2592556 71.46875 1.7578125 C72.22671875 0.88769531 72.22671875 0.88769531 73 0 C73.33 0 73.66 0 74 0 C74.986117 31.26749427 74.986117 31.26749427 64.91015625 43.09765625 C56.89388155 51.08114455 47.05301535 53.28809238 36.0625 53.4375 C24.65329038 53.32975546 17.07055806 50.54860056 8.38671875 43 C0.85430042 33.53208301 -0.86003319 25.16440511 -0.375 13.25 C-0.34792969 11.96867187 -0.32085937 10.68734375 -0.29296875 9.3671875 C-0.22302335 6.2429597 -0.12492281 3.1224296 0 0 Z " fill="#F9786C" transform="translate(219,413)"/>
<path d="M0 0 C0.33 0 0.66 0 1 0 C1 21.45 1 42.9 1 65 C-15 65 -15 65 -21 61 C-24.39895064 55.90157405 -23.4504392 50.14861464 -22.60546875 44.2421875 C-19.09152171 27.96467797 -10.64104137 12.66465821 0 0 Z " fill="#F66759" transform="translate(168,432)"/>
<path d="M0 0 C12.86544074 12.86544074 23.75578976 33.39025886 24.3125 51.9375 C24.2628248 56.6992226 23.25547948 59.38280058 20 63 C16 65 16 65 0 65 C0 43.55 0 22.1 0 0 Z " fill="#F9786C" transform="translate(343,432)"/>
<path d="M0 0 C-0.16226074 1.15467773 -0.32452148 2.30935547 -0.49169922 3.49902344 C-1.01148463 7.67449922 -1.14520816 11.81084419 -1.1328125 16.015625 C-1.13376923 16.75270691 -1.13472595 17.48978882 -1.13571167 18.24920654 C-1.13638741 19.79878831 -1.13457575 21.34837301 -1.13037109 22.89794922 C-1.12504519 25.23021036 -1.13032092 27.56227623 -1.13671875 29.89453125 C-1.14007804 38.31290923 -0.89781866 46.61899574 0 55 C-7.90690615 54.67054558 -12.30119937 50.69880063 -17.75 45.25 C-22.71612302 38.07671119 -25.3225998 30.75370177 -24 22 C-21.79045962 13.39717416 -16.99640863 6.28284926 -9.4375 1.5 C-5.94357023 -0.0246239 -3.75991358 -0.36682084 0 0 Z " fill="#EAA283" transform="translate(106,224)"/>
<path d="M0 0 C5.45236788 -0.83882583 8.54204813 1.09581229 12.8203125 4.1640625 C19.09879375 9.452389 23.11312754 16.18605834 24.3515625 24.3046875 C24.83819398 32.32130081 22.1078646 39.70451469 17.42578125 46.17578125 C13.40539825 50.55228209 8.66189945 53.23339959 3 55 C2.01 55 1.02 55 0 55 C0.16226074 53.69877197 0.32452148 52.39754395 0.49169922 51.05688477 C1.00877515 46.38490138 1.14532797 41.78666437 1.1328125 37.08984375 C1.13376923 36.27810196 1.13472595 35.46636017 1.13571167 34.63002014 C1.13638682 32.92839479 1.13457942 31.22676676 1.13037109 29.52514648 C1.1250063 26.94053297 1.13034245 24.35609264 1.13671875 21.77148438 C1.13605799 20.10677046 1.13477686 18.44205664 1.1328125 16.77734375 C1.13483673 16.01566391 1.13686096 15.25398407 1.13894653 14.46922302 C1.11780475 9.56544334 0.69178411 4.8558848 0 0 Z " fill="#F7B897" transform="translate(406,224)"/>
<path d="M0 0 C1.9140625 1.3515625 1.9140625 1.3515625 3.875 3 C7.56285439 6.01020223 10.08196144 6.79666357 14.8203125 6.46875 C19.31552044 5.50203862 22.75093649 3.24906351 26 0 C29.89201406 -0.43244601 32.13230302 -0.57846465 35.4375 1.625 C37.51114192 4.77693571 37.66859841 6.28556438 37 10 C32.89557054 16.70390146 26.28685482 19.57104839 19 22 C9.30071827 23.10250828 2.11521888 21.45163477 -6 16 C-9.23118626 13.35259949 -10.80518397 11.08231128 -11.5625 6.875 C-11 4 -11 4 -9.4375 1.625 C-5.94740709 -0.7017286 -4.13674184 -0.68945697 0 0 Z " fill="#040403" transform="translate(243,260)"/>
<path d="M0 0 C16.5 0 33 0 50 0 C47.08838924 7.27902689 42.31383686 11.23235328 35.1875 14.4375 C28.17693022 16.92130616 21.27841947 17.20232371 14.3125 14.4375 C7.55361979 11.00943486 2.82706624 7.06766561 0 0 Z " fill="#E7A082" transform="translate(231,402)"/>
<path d="M0 0 C2.78943398 2.54941292 3.01466933 4.12310017 3.46875 7.93359375 C3.49520119 9.43469894 3.50512837 10.93617054 3.5 12.4375 C3.52835937 13.18837891 3.55671875 13.93925781 3.5859375 14.71289062 C3.60079842 18.93710753 3.34972868 20.5521838 0.66015625 23.99609375 C-2 26 -2 26 -5.0625 26.625 C-8 26 -8 26 -10.1484375 24.02734375 C-12.66402583 19.91430377 -12.62739589 16.66726522 -12.5625 11.9375 C-12.58634766 11.13505859 -12.61019531 10.33261719 -12.63476562 9.50585938 C-12.6244142 5.34803617 -12.55858796 3.61907803 -9.69140625 0.44140625 C-5.99924841 -1.5359613 -3.96666141 -1.17530709 0 0 Z " fill="#040303" transform="translate(323,249)"/>
<path d="M0 0 C3.82335192 1.20364783 4.52280878 1.61019092 6.375 5.0625 C6.72187988 7.97340032 6.8849286 10.59340332 6.875 13.5 C6.90335938 14.25087891 6.93171875 15.00175781 6.9609375 15.77539062 C6.97579842 19.99960753 6.72472868 21.6146838 4.03515625 25.05859375 C1.375 27.0625 1.375 27.0625 -1.6875 27.6875 C-4.625 27.0625 -4.625 27.0625 -6.7734375 25.0546875 C-9.22324054 21.09572309 -9.25449095 18.12576576 -9.1875 13.5625 C-9.21134766 12.81613281 -9.23519531 12.06976563 -9.25976562 11.30078125 C-9.24865463 7.1156401 -8.93792759 5.47285344 -6.31640625 2.03515625 C-3.625 0.0625 -3.625 0.0625 0 0 Z " fill="#040303" transform="translate(194.625,247.9375)"/>
<path d="M0 0 C0.72832031 0.73863281 1.45664063 1.47726562 2.20703125 2.23828125 C4.63929682 4.64333266 7.11779168 6.93191562 9.6875 9.1875 C11.84756169 11.08617608 13.96633012 12.96633012 16 15 C15.319375 15.61875 14.63875 16.2375 13.9375 16.875 C9.18855896 21.59680423 5.6983786 27.45243209 2 33 C0.09920336 28.98464932 -0.23570807 25.81003409 -0.1953125 21.38671875 C-0.18886719 20.13955078 -0.18242187 18.89238281 -0.17578125 17.60742188 C-0.15902344 16.31384766 -0.14226562 15.02027344 -0.125 13.6875 C-0.11597656 12.37458984 -0.10695312 11.06167969 -0.09765625 9.70898438 C-0.07411797 6.47247087 -0.0412352 3.23632851 0 0 Z " fill="#F56659" transform="translate(219,413)"/>
</svg>
