<?xml version="1.0" standalone="no"?><!DOCTYPE svg PUBLIC "-//W3C//DTD SVG 1.1//EN" "http://www.w3.org/Graphics/SVG/1.1/DTD/svg11.dtd"><svg t="1730279244501" class="icon" viewBox="0 0 1024 1024" version="1.1" xmlns="http://www.w3.org/2000/svg" p-id="1924" xmlns:xlink="http://www.w3.org/1999/xlink" width="200" height="200"><path d="M32 512c0 265.088 214.912 480 480 480 265.088 0 480-214.912 480-480 0-265.088-214.912-480-480-480C246.912 32 32 246.912 32 512z" fill="#E43F49" p-id="1925"></path><path d="M805.952 636.224h-32.48l-13.92-32.448h39.424V548.16h-74.112v85.792h-39.488v-88.16h-39.392v-37.056h39.392v-37.12h-27.808V434.56h27.808V416h39.488v18.56h27.776c10.816 0.064 21.056 4.704 28.192 12.8 6.656 7.104 9.92 16.8 8.96 26.496v37.184h9.248c10.816-0.384 21.28 3.872 28.768 11.712 6.592 7.616 9.6 17.728 8.32 27.712v55.616a30.528 30.528 0 0 1-30.176 30.08v0.064z m-81.088-164.544v39.392h27.776V471.68h-27.776z m-81.152 162.272h-134.56l18.528-39.424h37.088v-122.88h-27.776v-39.392h92.8v41.696h-20.896v122.88h34.688v37.12h0.128z m-157.664 0h-64.96l20.864-37.12h60.288l-16.192 37.088v0.032z m-160 0H288.928l-13.888-32.448h27.84v-180.896h41.792v187.776c-0.32 1.024-5.024 25.536-18.624 25.536l0.064 0.032z m74.144-18.56c-31.776-25.088-27.84-140.288-27.84-141.44h41.76c-1.856 27.904-0.32 55.936 4.608 83.488 0.96 2.976 1.664 6.08 2.144 9.12v0.384c0.384 3.2 1.248 6.272 2.432 9.184-8.96 12.384-16.704 25.568-23.168 39.392l0.096-0.16h-0.032z m-152.992-2.336A488.96 488.96 0 0 1 224 573.696l1.408-4.096c1.92-4.608 3.072-9.536 3.232-14.528a265.952 265.952 0 0 0 4.576-83.392h41.728v0.192c0.16 11.904 0.64 117.12-27.776 141.184z m261.952-34.784h-50.976a9.664 9.664 0 0 1-7.936-4.032 10.976 10.976 0 0 1-1.376-9.856l23.2-53.344H451.2a9.632 9.632 0 0 1-7.872-4.032 10.976 10.976 0 0 1-1.376-9.856l30.112-76.48h39.424l-20.864 57.92h34.752l-34.752 69.504h30.144l-11.616 30.144v0.032z m310.72-106.624h-18.56v-18.56a18.56 18.56 0 0 1 37.088 0 19.84 19.84 0 0 1-18.496 18.56z" fill="#FFFFFF" p-id="1926"></path></svg>