<?xml version="1.0" standalone="no"?><!DOCTYPE svg PUBLIC "-//W3C//DTD SVG 1.1//EN" "http://www.w3.org/Graphics/SVG/1.1/DTD/svg11.dtd"><svg t="1730280343905" class="icon" viewBox="0 0 1024 1024" version="1.1" xmlns="http://www.w3.org/2000/svg" p-id="7073" xmlns:xlink="http://www.w3.org/1999/xlink" width="200" height="200"><path d="M140.3392 820.992h494.7968c77.0048 0 159.1808-22.4768 231.7312-94.208 72.6016-71.7824 81.3568-208.896 58.88-262.2464-22.4768-53.3504-30.464-105.1648-19.2-147.456 7.5264-28.16 29.5936-52.6848 66.2528-73.5232a1219.1744 1219.1744 0 0 0-66.2528 0c-21.504-86.5792-121.5488-124.5184-299.9808-113.7664h-72.6528c55.7056 38.912 88.6784 141.7216 17.408 227.5328-47.5136 57.1904-184.5248 211.7632-410.9824 463.6672z" fill="#3AD27E" p-id="7074"></path><path d="M140.3392 820.992L51.2 917.6064s348.0576 76.3904 549.6832-96.6144c201.6256-173.056 183.9104-434.944-107.3664-399.6672-79.7184 89.6-197.4272 222.7712-353.1776 399.6672z" fill="#B5EF5C" p-id="7075"></path><path d="M506.1632 419.9424c279.0912-26.2144 293.376 230.5536 94.72 401.0496H140.3392c162.6624-183.9104 280.6784-317.1328 354.0992-399.7696z" fill="#77DD64" p-id="7076"></path></svg>